Coordinates
version=1
nRows=9
nColumns=24
inDegrees=yes

Units are S.I. units (second, meters, Newtons, ...)
Angles are in degrees.

endheader
time	pelvis_tilt	pelvis_list	pelvis_rotation	pelvis_tx	pelvis_ty	pelvis_tz	hip_flexion_r	hip_adduction_r	hip_rotation_r	knee_angle_r	ankle_angle_r	subtalar_angle_r	mtp_angle_r	hip_flexion_l	hip_adduction_l	hip_rotation_l	knee_angle_l	ankle_angle_l	subtalar_angle_l	mtp_angle_l	lumbar_extension	lumbar_bending	lumbar_rotation
      0.77100000	      0.29842156	     -5.77582872	      7.81995258	     -0.44482535	      0.90907981	      0.31346179	     11.92611440	     11.69867055	     -5.49845191	    -20.10065098	      8.52926999	     -3.19251965	      3.34310246	     16.03230025	    -10.14663570	     -0.78246155	    -73.15392159	     -1.07694918	     -8.52797684	      3.32924765	     -5.87687819	      7.18519420	     -0.18589374
      0.77516667	      0.24990171	     -5.60962057	      7.66063242	     -0.43953053	      0.91022523	      0.31384752	     11.31650477	     11.62699217	     -5.23570990	    -19.60767692	      8.59495691	     -3.11208477	      3.32102359	     16.68905362	     -9.83095271	     -0.95086982	    -72.77757258	     -0.59494124	     -8.51944753	      3.21854326	     -5.87801655	      6.98516845	      0.20371760
      0.77933333	      0.18471504	     -5.44066862	      7.49335654	     -0.43427157	      0.91131710	      0.31421674	     10.73364438	     11.53874167	     -4.99579466	    -19.12592814	      8.62127560	     -2.98765240	      3.31220432	     17.34830269	     -9.50508994	     -1.12379250	    -72.33717992	     -0.11420935	     -8.56423276	      3.17784783	     -5.87093544	      6.78176543	      0.36044886
      0.78350000	      0.16400310	     -5.27329760	      7.31339806	     -0.42898011	      0.91245562	      0.31462656	     10.08131872	     11.46164031	     -4.73797549	    -18.60309115	      8.68072966	     -2.88081820	      3.29722157	     17.93023202	     -9.20888782	     -1.33174101	    -71.81661678	      0.32071584	     -8.52756126	      3.10386975	     -5.91007432	      6.57349125	      0.72329780
      0.78766667	      0.13345444	     -5.10690411	      7.12039561	     -0.42371067	      0.91354911	      0.31503032	      9.44300852	     11.37645979	     -4.48858009	    -18.08116740	      8.70312772	     -2.75676665	      3.28397548	     18.50296630	     -8.91177675	     -1.54871810	    -71.22955534	      0.74601990	     -8.51460524	      3.03726972	     -5.93905457	      6.37675499	      1.00929512
      0.79183333	      0.11305952	     -4.94653305	      6.91741357	     -0.41843735	      0.91462652	      0.31544273	      8.78613789	     11.29404134	     -4.24457045	    -17.53846821	      8.69951657	     -2.61444837	      3.26837370	     19.04392563	     -8.63120067	     -1.78156102	    -70.57591435	      1.15612142	     -8.48866175	      2.95530879	     -5.97371718	      6.19667679	      1.32266988
      0.79600000	      0.10940990	     -4.77472465	      6.70660202	     -0.41317969	      0.91569406	      0.31586273	      8.11128655	     11.19687828	     -4.00362719	    -16.99962110	      8.73260496	     -2.46635124	      3.26046324	     19.54240024	     -8.34586576	     -2.02827807	    -69.85194172	      1.53937217	     -8.44585660	      2.90704537	     -6.03980112	      5.98772642	      1.56605610
      0.80016667	      0.11658812	     -4.61215305	      6.48406667	     -0.40793203	      0.91673447	      0.31629332	      7.41947912	     11.10568072	     -3.76693519	    -16.44068959	      8.73306969	     -2.30811520	      3.25395720	     20.01114940	     -8.08229885	     -2.29345492	    -69.06716358	      1.91036532	     -8.39852977	      2.86301124	     -6.11500383	      5.79438849	      1.85154581
      0.80433333	      0.13195987	     -4.45488613	      6.25492253	     -0.40269003	      0.91774448	      0.31672109	      6.71547952	     11.01472113	     -3.53414416	    -15.87148660	      8.72986006	     -2.14380229	      3.24974426	     20.45193502	     -7.83205850	     -2.56809394	    -68.22078785	      2.26117363	     -8.33985944	      2.82549231	     -6.19816855	      5.61288094	      2.12872597
